<svg xmlns="http://www.w3.org/2000/svg" width="25" height="24" viewBox="0 0 25 24" fill="none">
  <path d="M18.1567 14.8284L16.7425 13.4142L18.1567 12C19.7188 10.4379 19.7188 7.90524 18.1567 6.34314C16.5946 4.78105 14.0619 4.78105 12.4998 6.34314L11.0856 7.75736L9.67139 6.34314L11.0856 4.92893C13.4287 2.58578 17.2277 2.58578 19.5709 4.92893C21.914 7.27208 21.914 11.0711 19.5709 13.4142L18.1567 14.8284ZM15.3282 17.6569L13.914 19.0711C11.5709 21.4142 7.77189 21.4142 5.42875 19.0711C3.0856 16.7279 3.0856 12.9289 5.42875 10.5858L6.84296 9.17157L8.25717 10.5858L6.84296 12C5.28086 13.5621 5.28086 16.0948 6.84296 17.6569C8.40506 19.2189 10.9377 19.2189 12.4998 17.6569L13.914 16.2426L15.3282 17.6569ZM15.3282 7.75736L16.7425 9.17157L9.67139 16.2426L8.25717 14.8284L15.3282 7.75736Z" fill="#E0E2F6"/>
</svg>
